<?xml version="1.0" standalone="no"?>
<!DOCTYPE svg PUBLIC "-//W3C//DTD SVG 20010904//EN"
 "http://www.w3.org/TR/2001/REC-SVG-20010904/DTD/svg10.dtd">
<svg version="1.0" xmlns="http://www.w3.org/2000/svg"
 width="256.000000pt" height="256.000000pt" viewBox="0 0 256.000000 256.000000"
 preserveAspectRatio="xMidYMid meet">

<g transform="translate(0.000000,256.000000) scale(0.100000,-0.100000)"
fill="#000" stroke="none">
<path d="M1173 2465 c-160 -43 -277 -160 -319 -320 -38 -141 8 -308 115 -415
42 -42 128 -98 136 -88 10 12 25 49 25 62 0 8 -10 18 -21 21 -30 10 -107 82
-135 126 -12 20 -29 60 -38 89 -56 189 53 387 244 444 171 51 349 -32 427
-199 24 -51 28 -73 28 -145 0 -72 -4 -94 -28 -145 -43 -92 -115 -158 -213
-195 l-26 -10 32 42 31 43 -28 22 c-15 13 -30 23 -33 23 -8 0 -140 -178 -140
-187 1 -5 42 -39 93 -76 l92 -68 22 28 c13 15 23 31 23 34 0 4 -16 17 -35 30
-37 26 -44 39 -20 39 33 0 136 62 184 110 111 111 154 266 116 415 -62 238
-302 382 -532 320z"/>
<path d="M1240 2188 l0 -133 -76 -95 -76 -95 29 -22 c15 -13 31 -22 36 -20 4
1 43 47 87 102 l80 100 0 148 0 147 -40 0 -40 0 0 -132z"/>
<path d="M515 2270 c-11 -4 -31 -20 -45 -35 l-25 -27 -3 -264 -3 -264 41 0 40
0 0 248 c0 180 3 251 12 260 8 8 54 12 140 12 l128 0 0 40 0 40 -132 -1 c-73
0 -142 -4 -153 -9z"/>
<path d="M1760 2241 l0 -41 128 0 c86 0 132 -4 140 -12 8 -8 12 -58 12 -160
l0 -149 -47 36 -48 36 -22 -28 c-13 -15 -23 -30 -23 -33 0 -3 41 -36 90 -73
l90 -67 90 67 c50 37 90 70 90 73 0 3 -10 18 -23 33 l-22 28 -47 -35 -47 -36
-3 165 -3 165 -33 32 -32 33 -145 3 -145 3 0 -40z"/>
<path d="M1789 1657 c-49 -33 -60 -74 -44 -167 l13 -75 -47 -53 c-170 -193
-254 -389 -268 -618 l-6 -102 -64 -4 c-56 -3 -68 -8 -96 -36 l-32 -32 0 -210
0 -210 33 -32 32 -33 155 -3 c123 -3 161 0 185 12 27 13 33 13 60 0 24 -13 81
-15 332 -12 299 3 304 3 341 27 21 13 50 42 65 64 l27 41 -1 315 c0 291 -2
322 -21 393 -46 164 -122 301 -244 440 l-47 53 13 75 c16 93 5 134 -44 167
-31 21 -45 23 -171 23 -126 0 -140 -2 -171 -23z m306 -73 c8 -9 14 -24 11 -33
-3 -9 -8 -37 -12 -63 l-6 -48 -128 0 -128 0 -6 48 c-4 26 -9 54 -12 63 -3 9 3
24 11 33 13 13 39 16 135 16 96 0 122 -3 135 -16z m-230 -246 c-3 -13 -17 -75
-31 -138 -13 -63 -27 -123 -30 -132 -4 -13 4 -19 32 -27 21 -6 39 -9 41 -7 2
1 19 74 39 162 34 155 39 172 48 163 3 -2 21 -76 40 -163 20 -88 37 -161 39
-162 2 -2 20 1 41 7 28 8 36 14 32 27 -3 9 -17 69 -30 132 -14 63 -28 125 -31
138 -5 19 -1 22 22 22 53 -1 206 -206 263 -352 51 -131 61 -224 58 -517 l-3
-261 -33 -32 c-32 -32 -34 -33 -137 -36 l-104 -4 -3 286 -3 286 -33 32 -32 33
-170 0 -170 0 -31 -32 c-25 -24 -33 -42 -36 -80 l-5 -48 -59 3 -59 4 0 58 c0
207 79 406 235 589 47 56 66 71 88 71 23 0 27 -3 22 -22z m163 -630 c7 -7 12
-25 12 -40 l0 -28 -160 0 -160 0 0 28 c0 15 5 33 12 40 17 17 279 17 296 0z
m-400 -160 c7 -7 12 -25 12 -40 l0 -28 -160 0 -160 0 0 28 c0 15 5 33 12 40
17 17 279 17 296 0z m412 -28 l0 -40 -160 0 -160 0 0 40 0 40 160 0 160 0 0
-40z m-400 -160 l0 -40 -160 0 -160 0 0 40 0 40 160 0 160 0 0 -40z m400 0 l0
-40 -160 0 -160 0 0 40 0 40 160 0 160 0 0 -40z m-400 -148 c0 -48 -13 -52
-160 -52 -147 0 -160 4 -160 52 l0 28 160 0 160 0 0 -28z m400 0 c0 -48 -13
-52 -160 -52 -147 0 -160 4 -160 52 l0 28 160 0 160 0 0 -28z"/>
<path d="M155 1591 c-11 -5 -31 -21 -45 -36 l-25 -27 -3 -314 c-2 -261 0 -320
12 -345 13 -25 13 -33 0 -58 -12 -25 -14 -84 -12 -345 l3 -316 33 -32 32 -33
450 0 450 0 32 33 33 32 3 316 c2 261 0 320 -12 345 -13 25 -13 33 0 58 12 25
14 84 12 345 l-3 316 -33 32 -32 33 -438 2 c-240 1 -446 -2 -457 -6z m165
-211 l0 -140 140 0 140 0 0 140 0 140 208 0 c148 0 211 -3 220 -12 17 -17 17
-599 0 -616 -17 -17 -839 -17 -856 0 -17 17 -17 599 0 616 7 7 40 12 80 12
l68 0 0 -140z m200 40 l0 -100 -60 0 -60 0 0 100 0 100 60 0 60 0 0 -100z
m-200 -760 l0 -140 140 0 140 0 0 140 0 140 208 0 c148 0 211 -3 220 -12 17
-17 17 -599 0 -616 -17 -17 -839 -17 -856 0 -17 17 -17 599 0 616 7 7 40 12
80 12 l68 0 0 -140z m200 40 l0 -100 -60 0 -60 0 0 100 0 100 60 0 60 0 0
-100z"/>
</g>
</svg>
