<?xml version="1.0" standalone="no"?>
<!DOCTYPE svg PUBLIC "-//W3C//DTD SVG 20010904//EN"
 "http://www.w3.org/TR/2001/REC-SVG-20010904/DTD/svg10.dtd">
<svg version="1.0" xmlns="http://www.w3.org/2000/svg"
 width="24" height="24" viewBox="0 0 242.000000 208.000000"
 preserveAspectRatio="xMidYMid meet">

<g transform="translate(0.000000,208.000000) scale(0.100000,-0.100000)"
fill="#000000" stroke="none">
<path d="M508 1946 c-56 -20 -85 -42 -117 -87 -73 -100 -61 -229 31 -316 46
-44 97 -63 170 -63 208 0 312 249 169 403 -58 64 -175 93 -253 63z"/>
<path d="M1737 1946 c-168 -61 -213 -289 -80 -407 50 -44 96 -61 164 -60 99 0
174 48 215 136 46 98 24 206 -56 278 -71 64 -158 83 -243 53z"/>
<path d="M1173 1700 c-92 -19 -182 -90 -225 -178 -34 -69 -37 -178 -7 -256 26
-71 91 -140 164 -176 41 -20 65 -25 135 -25 73 0 93 4 142 28 62 31 116 84
149 149 34 65 38 185 9 260 -52 140 -217 229 -367 198z"/>
<path d="M258 1376 c-56 -20 -85 -42 -116 -88 l-27 -41 -3 -314 -3 -313 231 0
230 0 0 111 c0 136 11 177 67 239 62 69 122 92 254 98 l107 4 -40 40 c-50 50
-98 150 -105 222 l-6 56 -276 0 c-204 -1 -286 -4 -313 -14z"/>
<path d="M1627 1332 c-6 -74 -47 -161 -101 -217 l-41 -43 93 -5 c113 -7 182
-36 237 -100 48 -56 65 -119 65 -244 l0 -103 220 0 220 0 0 281 c0 330 -4 354
-69 419 -66 66 -89 70 -373 70 l-245 0 -6 -58z"/>
<path d="M838 996 c-84 -23 -149 -84 -176 -165 -8 -23 -12 -143 -12 -372 l0
-339 580 0 580 0 0 343 c0 339 0 342 -24 392 -28 59 -76 107 -131 132 -36 16
-78 18 -405 20 -273 2 -377 -1 -412 -11z"/>
</g>
</svg>
