<?xml version="1.0" standalone="no"?>
<!DOCTYPE svg PUBLIC "-//W3C//DTD SVG 20010904//EN"
 "http://www.w3.org/TR/2001/REC-SVG-20010904/DTD/svg10.dtd">
<svg version="1.0" xmlns="http://www.w3.org/2000/svg"
 width="512.000000pt" height="512.000000pt" viewBox="0 0 512.000000 512.000000"
 preserveAspectRatio="xMidYMid meet">

<g transform="translate(0.000000,512.000000) scale(0.100000,-0.100000)"
fill="#000" stroke="none">
<path d="M2397 4670 c-471 -85 -807 -485 -807 -960 0 -271 95 -498 290 -690
111 -111 212 -175 351 -224 130 -47 223 -60 376 -53 257 11 455 98 639 281
187 188 284 419 284 678 0 131 -13 209 -53 328 -101 295 -343 524 -652 616
-75 22 -114 27 -235 30 -80 1 -167 -1 -193 -6z m368 -114 c163 -43 281 -112
406 -236 138 -137 210 -270 244 -455 22 -112 16 -266 -14 -380 -77 -293 -314
-531 -616 -617 -115 -33 -335 -33 -450 0 -298 86 -533 319 -615 612 -30 108
-37 271 -16 385 67 355 341 629 701 701 87 17 276 12 360 -10z"/>
<path d="M2495 4291 c-88 -23 -159 -77 -200 -152 -25 -47 -30 -67 -33 -151
l-4 -98 -47 0 c-91 0 -86 21 -86 -385 0 -341 1 -357 19 -371 29 -21 803 -21
832 0 18 14 19 30 19 371 0 406 5 385 -86 385 l-47 0 -4 98 c-3 84 -8 104 -33
151 -33 59 -89 110 -150 135 -46 20 -138 28 -180 17z m141 -112 c38 -12 88
-63 108 -111 10 -22 16 -67 16 -108 l0 -70 -200 0 -200 0 0 73 c1 119 52 197
147 223 48 12 69 11 129 -7z m254 -674 l0 -285 -330 0 -330 0 0 285 0 285 330
0 330 0 0 -285z"/>
<path d="M2516 3720 c-120 -37 -144 -213 -37 -276 29 -17 31 -22 31 -75 0 -41
5 -60 18 -72 44 -40 82 -6 82 74 0 49 3 55 30 71 43 24 70 74 70 129 0 101
-101 178 -194 149z m82 -112 c26 -26 0 -88 -36 -88 -23 0 -52 30 -52 55 0 28
18 45 50 45 14 0 31 -5 38 -12z"/>
<path d="M344 2456 c-18 -14 -19 -33 -22 -587 -2 -502 -1 -575 13 -595 l15
-24 418 0 417 -1 507 -393 c279 -217 522 -399 539 -405 70 -24 174 -7 222 37
17 16 21 15 56 -5 58 -34 102 -38 152 -15 66 29 532 488 554 545 l16 42 352
98 352 97 417 0 418 0 15 24 c14 20 15 93 13 595 -3 554 -4 573 -22 587 -17
12 -173 14 -1026 14 l-1007 0 -159 -91 c-87 -50 -165 -94 -172 -96 -7 -3 -56
30 -110 74 -53 43 -108 87 -122 96 -23 16 -94 17 -920 17 -758 0 -899 -2 -916
-14z m806 -601 l0 -505 -360 0 -360 0 0 505 0 505 360 0 360 0 0 -505z m1065
440 c44 -35 81 -68 82 -72 2 -5 -126 -82 -284 -173 -158 -91 -297 -173 -310
-183 -56 -44 -78 -142 -49 -210 40 -94 215 -169 358 -153 89 11 151 36 318
134 l155 91 318 -317 c267 -267 317 -321 317 -345 0 -20 -14 -43 -50 -80 l-49
-52 -318 318 c-175 174 -323 317 -329 317 -5 0 -20 -7 -32 -16 -49 -34 -38
-47 288 -377 l309 -313 -65 -65 -64 -64 -313 313 c-256 256 -317 312 -339 312
-27 0 -48 -23 -48 -53 0 -7 140 -156 312 -331 l311 -317 -49 -50 c-82 -83 -64
-94 -409 251 -214 214 -306 300 -322 300 -13 0 -30 -11 -39 -25 -14 -22 -14
-28 -3 -44 8 -11 122 -131 254 -266 223 -230 238 -248 220 -261 -27 -20 -85
-29 -115 -17 -14 5 -250 183 -523 394 l-497 384 0 518 0 517 443 0 442 0 80
-65z m1653 -446 l-3 -511 -328 -92 -328 -91 -342 342 c-261 262 -348 343 -366
343 -13 0 -106 -47 -205 -104 -204 -117 -230 -127 -318 -128 -162 -1 -278 83
-221 160 12 17 209 136 509 309 l489 283 558 0 557 0 -2 -511z m822 6 l0 -505
-360 0 -360 0 0 505 0 505 360 0 360 0 0 -505z"/>
</g>
</svg>
