<?xml version="1.0" standalone="no"?>
<!DOCTYPE svg PUBLIC "-//W3C//DTD SVG 20010904//EN"
 "http://www.w3.org/TR/2001/REC-SVG-20010904/DTD/svg10.dtd">
<svg version="1.0" xmlns="http://www.w3.org/2000/svg"
 width="24" height="24" viewBox="0 0 256.000000 256.000000"
 preserveAspectRatio="xMidYMid meet">

<g transform="translate(0.000000,256.000000) scale(0.100000,-0.100000)"
fill="#000" stroke="none">
<path d="M155 2471 c-45 -20 -70 -60 -70 -112 0 -42 5 -53 33 -81 28 -28 39
-33 82 -33 43 0 54 5 82 33 28 28 33 39 33 82 0 42 -5 54 -31 81 -33 33 -92
46 -129 30z m75 -86 c26 -32 -13 -81 -47 -59 -35 22 -23 74 17 74 10 0 23 -7
30 -15z"/>
<path d="M1190 2387 c-38 -52 -70 -100 -70 -108 0 -27 23 -39 72 -39 l48 0 0
-120 0 -120 40 0 40 0 0 120 0 120 48 0 c49 0 72 12 72 39 0 26 -139 201 -160
201 -13 0 -43 -31 -90 -93z m113 -42 l18 -25 -41 0 -41 0 18 25 c10 13 20 24
23 24 3 0 13 -11 23 -24z"/>
<path d="M2315 2471 c-45 -20 -70 -60 -70 -112 0 -42 5 -53 33 -81 28 -28 39
-33 82 -33 43 0 54 5 82 33 28 28 33 39 33 82 0 42 -5 54 -31 81 -33 33 -92
46 -129 30z m75 -86 c26 -32 -13 -81 -47 -59 -35 22 -23 74 17 74 10 0 23 -7
30 -15z"/>
<path d="M365 2200 l-29 -30 27 -27 27 -28 30 31 30 30 -28 27 -28 27 -29 -30z"/>
<path d="M2140 2195 l-24 -26 27 -26 26 -27 26 24 c31 29 31 34 3 60 -28 25
-30 25 -58 -5z"/>
<path d="M476 2084 l-29 -26 29 -29 30 -29 29 30 29 30 -24 25 c-29 30 -28 30
-64 -1z"/>
<path d="M2030 2085 l-24 -26 27 -27 27 -27 27 27 27 27 -24 26 c-13 14 -26
25 -30 25 -4 0 -17 -11 -30 -25z"/>
<path d="M587 1972 l-27 -28 29 -28 30 -28 25 27 c14 15 26 31 26 35 0 7 -44
50 -51 50 -3 0 -17 -13 -32 -28z"/>
<path d="M1917 1972 l-27 -28 28 -27 28 -27 27 28 27 28 -28 27 -28 27 -27
-28z"/>
<path d="M1132 1908 c-7 -7 -12 -30 -12 -52 0 -40 -1 -41 -55 -62 l-54 -21
-27 28 c-15 16 -35 29 -44 29 -20 0 -210 -190 -210 -211 0 -8 13 -28 29 -43
l28 -27 -21 -54 c-21 -54 -22 -55 -61 -55 -23 0 -46 -5 -53 -12 -17 -17 -17
-279 0 -296 7 -7 30 -12 53 -12 39 0 40 -1 61 -55 l21 -54 -28 -27 c-16 -15
-29 -35 -29 -44 0 -20 190 -210 211 -210 8 0 28 13 43 29 l27 28 54 -21 c54
-21 55 -22 55 -61 0 -23 5 -46 12 -53 17 -17 279 -17 296 0 7 7 12 30 12 53 0
39 1 40 55 61 l54 21 27 -28 c15 -16 35 -29 44 -29 20 0 210 190 210 211 0 8
-13 28 -29 43 l-28 27 21 54 c21 54 22 55 61 55 23 0 46 5 53 12 17 17 17 279
0 296 -7 7 -30 12 -52 12 -40 0 -41 1 -62 55 l-21 54 28 27 c16 15 29 35 29
44 0 20 -190 210 -211 210 -8 0 -28 -13 -43 -29 l-27 -28 -54 21 c-54 21 -55
22 -55 62 0 22 -5 45 -12 52 -8 8 -56 12 -148 12 -92 0 -140 -4 -148 -12z
m228 -100 c0 -41 8 -53 40 -63 14 -4 55 -21 93 -38 l68 -30 30 29 30 28 56
-57 57 -56 -28 -30 -29 -30 30 -68 c17 -38 34 -79 38 -93 10 -32 22 -40 63
-40 l32 0 0 -80 0 -80 -32 0 c-41 0 -53 -8 -63 -40 -4 -14 -21 -55 -38 -93
l-30 -68 29 -30 28 -30 -57 -56 -56 -57 -30 28 -30 29 -68 -30 c-38 -17 -79
-34 -93 -38 -32 -10 -40 -22 -40 -62 l0 -33 -80 0 -80 0 0 33 c0 40 -8 52 -40
62 -14 4 -55 21 -93 38 l-68 30 -30 -29 -30 -28 -56 57 -57 56 28 30 29 30
-30 68 c-17 38 -34 79 -38 93 -10 32 -22 40 -62 40 l-33 0 0 80 0 80 33 0 c40
0 52 8 62 40 4 14 21 55 38 93 l30 68 -29 30 -28 30 57 56 56 57 30 -28 30
-29 68 30 c38 17 79 34 93 38 32 10 40 22 40 63 l0 32 80 0 80 0 0 -32z"/>
<path d="M1186 1670 c-63 -16 -153 -70 -197 -117 -22 -24 -55 -74 -72 -111
-29 -61 -32 -76 -32 -163 0 -90 2 -99 37 -171 45 -91 103 -147 196 -191 61
-29 76 -32 162 -32 86 0 101 3 162 32 93 44 151 100 196 191 35 72 37 81 37
172 0 91 -2 100 -37 172 -68 136 -188 217 -336 224 -42 2 -94 -1 -116 -6z
m229 -101 c142 -67 217 -234 171 -380 -18 -55 -78 -149 -96 -149 -6 0 -10 24
-10 54 0 65 -12 102 -47 138 -26 27 -26 27 -8 64 21 45 16 115 -12 152 -38 51
-70 67 -133 67 -63 0 -95 -16 -133 -67 -28 -37 -33 -107 -12 -152 18 -37 18
-37 -8 -64 -35 -36 -47 -73 -47 -138 0 -30 -4 -54 -10 -54 -5 0 -25 21 -44 48
-131 179 -56 420 154 496 63 23 170 16 235 -15z m-80 -154 c50 -49 15 -135
-55 -135 -19 0 -40 9 -55 25 -16 15 -25 36 -25 55 0 19 9 40 25 55 15 16 36
25 55 25 19 0 40 -9 55 -25z m40 -240 c23 -22 25 -32 25 -108 0 -71 -3 -86
-17 -92 -36 -13 -139 -17 -180 -6 l-43 12 0 85 c0 77 2 87 25 109 21 22 33 25
95 25 62 0 74 -3 95 -25z"/>
<path d="M705 1860 l-29 -30 27 -27 27 -28 30 31 30 30 -28 27 -28 27 -29 -30z"/>
<path d="M1805 1860 l-29 -30 27 -27 27 -28 30 31 30 30 -28 27 -28 27 -29
-30z"/>
<path d="M173 1370 c-62 -47 -93 -77 -93 -90 0 -21 175 -160 201 -160 27 0 39
23 39 72 l0 48 120 0 120 0 0 40 0 40 -120 0 -120 0 0 48 c0 49 -12 72 -39 72
-9 0 -58 -32 -108 -70z m65 -109 c-3 -19 -3 -19 -27 0 l-23 19 23 19 c24 19
24 19 27 0 2 -10 2 -28 0 -38z"/>
<path d="M2252 1428 c-7 -7 -12 -34 -12 -60 l0 -48 -120 0 -120 0 0 -40 0 -40
120 0 120 0 0 -48 c0 -49 12 -72 39 -72 26 0 201 139 201 160 0 13 -31 43 -93
90 -96 71 -114 79 -135 58z m117 -148 c0 -3 -11 -13 -24 -23 l-25 -18 0 41 0
41 25 -18 c13 -10 24 -20 24 -23z"/>
<path d="M1805 760 l-29 -30 27 -27 27 -28 30 31 30 30 -28 27 -28 27 -29 -30z"/>
<path d="M700 755 l-24 -26 27 -26 26 -27 26 24 c31 29 31 34 3 60 -28 25 -30
25 -58 -5z"/>
<path d="M590 645 l-24 -26 27 -27 27 -27 27 27 27 27 -24 26 c-13 14 -26 25
-30 25 -4 0 -17 -11 -30 -25z"/>
<path d="M1916 644 l-29 -26 29 -29 30 -29 29 30 29 30 -24 25 c-29 30 -28 30
-64 -1z"/>
<path d="M477 532 l-27 -28 28 -27 28 -27 27 28 27 28 -28 27 -28 27 -27 -28z"/>
<path d="M1240 440 l0 -120 -48 0 c-49 0 -72 -12 -72 -39 0 -26 139 -201 160
-201 21 0 160 175 160 201 0 27 -23 39 -72 39 l-48 0 0 120 0 120 -40 0 -40 0
0 -120z m63 -225 c-10 -13 -20 -24 -23 -24 -3 0 -13 11 -23 24 l-18 25 41 0
41 0 -18 -25z"/>
<path d="M2027 532 l-27 -28 29 -28 30 -28 25 27 c14 15 26 31 26 35 0 7 -44
50 -51 50 -3 0 -17 -13 -32 -28z"/>
<path d="M365 420 l-29 -30 27 -27 27 -28 30 31 30 30 -28 27 -28 27 -29 -30z"/>
<path d="M2145 420 l-29 -30 27 -27 27 -28 30 31 30 30 -28 27 -28 27 -29 -30z"/>
<path d="M155 311 c-45 -20 -70 -60 -70 -112 0 -42 5 -53 33 -81 28 -28 39
-33 82 -33 43 0 54 5 82 33 28 28 33 39 33 82 0 42 -5 54 -31 81 -33 33 -92
46 -129 30z m75 -86 c15 -18 10 -45 -12 -59 -35 -22 -74 27 -48 59 16 19 44
19 60 0z"/>
<path d="M2315 311 c-45 -20 -70 -60 -70 -112 0 -42 5 -53 33 -81 47 -48 117
-48 164 0 28 28 33 39 33 82 0 42 -5 54 -31 81 -33 33 -92 46 -129 30z m75
-86 c15 -18 10 -45 -12 -59 -35 -22 -74 27 -48 59 16 19 44 19 60 0z"/>
</g>
</svg>
