<?xml version="1.0" standalone="no"?>
<!DOCTYPE svg PUBLIC "-//W3C//DTD SVG 20010904//EN"
 "http://www.w3.org/TR/2001/REC-SVG-20010904/DTD/svg10.dtd">
<svg version="1.0" xmlns="http://www.w3.org/2000/svg"
 width="200.000000pt" height="200.000000pt" viewBox="0 0 200.000000 200.000000"
 preserveAspectRatio="xMidYMid meet">

<g transform="translate(0.000000,200.000000) scale(0.100000,-0.100000)"
fill="#000" stroke="none">
<path d="M139 1853 c-12 -13 -14 -159 -14 -854 0 -791 1 -839 18 -856 17 -17
65 -18 856 -18 918 0 871 -3 871 60 0 69 51 65 -828 65 l-792 0 0 793 c0 756
-1 795 -18 810 -24 22 -76 22 -93 0z"/>
<path d="M345 1416 c-10 -14 -13 -34 -10 -48 4 -14 108 -126 239 -256 197
-197 236 -232 261 -232 24 0 51 21 147 117 l118 118 185 -185 185 -185 -54 -5
c-86 -8 -124 -62 -76 -110 18 -18 33 -20 164 -20 196 0 190 -5 194 172 4 146
-4 182 -43 200 -22 10 -30 8 -53 -9 -24 -18 -27 -28 -30 -83 l-3 -63 -223 221
c-130 130 -230 222 -241 222 -10 0 -73 -54 -142 -122 l-123 -122 -208 207
c-184 184 -211 207 -239 207 -23 0 -37 -7 -48 -24z"/>
</g>
</svg>
