<?xml version="1.0" standalone="no"?>
<!DOCTYPE svg PUBLIC "-//W3C//DTD SVG 20010904//EN"
 "http://www.w3.org/TR/2001/REC-SVG-20010904/DTD/svg10.dtd">
<svg version="1.0" xmlns="http://www.w3.org/2000/svg"
 width="24" height="24" viewBox="0 0 225.000000 225.000000"
 preserveAspectRatio="xMidYMid meet">

<g transform="translate(0.000000,225.000000) scale(0.100000,-0.100000)"
fill="#000000" stroke="none">
<path d="M990 2219 c-229 -28 -451 -133 -620 -296 -106 -100 -169 -185 -230
-308 -186 -375 -147 -810 101 -1146 302 -409 853 -557 1321 -354 429 185 701
640 658 1101 -36 377 -245 700 -570 877 -189 104 -445 153 -660 126z m382
-107 c184 -49 332 -135 468 -271 210 -210 310 -470 297 -766 -9 -189 -62 -355
-163 -507 -304 -457 -903 -593 -1376 -312 -113 67 -275 229 -342 342 -197 332
-195 735 6 1062 69 113 224 267 336 334 99 59 233 111 339 131 110 20 332 14
435 -13z"/>
<path d="M1455 1580 l50 -50 -233 -233 -232 -232 -65 65 -65 65 -155 -155
-155 -155 30 -30 30 -30 125 125 125 125 65 -65 65 -66 257 258 c142 142 262
258 267 258 6 0 32 -21 58 -47 26 -26 48 -43 48 -38 0 19 -38 216 -41 219 -5
4 -192 36 -209 36 -8 0 8 -23 35 -50z"/>
<path d="M1428 1278 l-108 -110 0 -259 0 -260 113 3 112 3 3 368 c1 202 -1
367 -5 366 -5 0 -56 -50 -115 -111z"/>
<path d="M1193 1039 l-63 -61 0 -164 0 -164 65 0 65 0 0 225 c0 124 -1 225 -2
225 -2 0 -31 -28 -65 -61z"/>
<path d="M874 988 l-29 -33 3 -152 3 -153 49 0 50 0 0 168 c0 151 -2 171 -18
185 -24 22 -23 22 -58 -15z"/>
<path d="M1010 787 l0 -138 33 3 32 3 3 134 c3 130 2 134 -16 118 -17 -15 -19
-15 -35 0 -16 16 -17 9 -17 -120z"/>
<path d="M752 867 c-33 -34 -33 -34 -30 -123 l3 -89 33 -3 32 -3 0 125 c0 69
-1 126 -3 126 -2 0 -18 -15 -35 -33z"/>
</g>
</svg>
