<?xml version="1.0" standalone="no"?>
<!DOCTYPE svg PUBLIC "-//W3C//DTD SVG 20010904//EN"
 "http://www.w3.org/TR/2001/REC-SVG-20010904/DTD/svg10.dtd">
<svg version="1.0" xmlns="http://www.w3.org/2000/svg"
 width="24" height="24" viewBox="0 0 225.000000 225.000000"
 preserveAspectRatio="xMidYMid meet">

<g transform="translate(0.000000,225.000000) scale(0.100000,-0.100000)"
fill="#000000" stroke="none">
<path d="M433 1578 c-13 -15 -43 -111 -87 -277 -73 -272 -74 -290 -24 -311 13
-5 73 -23 134 -40 118 -32 152 -31 172 7 6 10 40 130 77 267 77 288 77 294 -4
320 -85 27 -201 56 -224 56 -13 0 -33 -10 -44 -22z m67 -428 c41 -41 12 -120
-45 -120 -14 0 -34 9 -45 20 -41 41 -12 120 45 120 14 0 34 -9 45 -20z"/>
<path d="M1565 1520 c-104 -46 -145 -76 -145 -106 0 -25 211 -498 228 -511 28
-23 69 -14 186 38 165 73 163 53 35 345 -57 130 -111 247 -122 260 -26 34 -56
30 -182 -26z m278 -402 c22 -27 22 -49 -4 -82 -25 -32 -70 -35 -99 -6 -27 27
-25 66 6 96 29 30 67 27 97 -8z"/>
<path d="M1005 1441 c-50 -6 -50 -6 -83 -71 -52 -104 -55 -174 -8 -205 32 -21
60 -13 142 41 78 51 127 57 183 23 39 -24 167 -149 257 -252 54 -62 61 -67 78
-54 19 14 16 23 -79 240 l-98 225 -61 18 c-151 43 -212 49 -331 35z"/>
<path d="M776 1386 c-68 -242 -107 -402 -100 -413 5 -7 88 -78 184 -158 l175
-145 57 0 c31 0 59 4 62 8 3 5 -15 28 -39 52 -25 24 -45 48 -45 52 0 21 30 2
96 -62 56 -55 78 -70 101 -70 31 0 63 26 63 51 0 8 -31 46 -70 84 -64 64 -84
95 -61 95 5 0 45 -38 87 -85 78 -84 97 -95 135 -75 37 20 23 57 -51 138 -38
43 -70 80 -70 85 0 13 29 8 37 -7 4 -8 35 -43 68 -77 53 -56 64 -63 98 -63 36
-1 67 21 67 46 0 11 -113 141 -218 250 -100 103 -162 143 -205 133 -14 -4 -56
-27 -93 -51 -97 -64 -163 -58 -194 15 -17 42 -6 104 33 182 l33 65 -68 0 -67
1 -15 -51z"/>
</g>
</svg>
