<?xml version="1.0" standalone="no"?>
<!DOCTYPE svg PUBLIC "-//W3C//DTD SVG 20010904//EN"
 "http://www.w3.org/TR/2001/REC-SVG-20010904/DTD/svg10.dtd">
<svg version="1.0" xmlns="http://www.w3.org/2000/svg"
 width="24" height="24" viewBox="0 0 512.000000 512.000000"
 preserveAspectRatio="xMidYMid meet">

<g transform="translate(0.000000,512.000000) scale(0.100000,-0.100000)"
fill="#fff" stroke="none">
<path d="M3230 4694 c-139 -26 -289 -92 -394 -171 l-59 -45 -71 21 c-212 63
-452 -21 -567 -199 -34 -53 -35 -53 -154 -65 -33 -3 -130 -17 -215 -31 -580
-95 -959 -275 -1063 -504 -45 -98 -18 -241 62 -332 l32 -37 -41 -53 c-79 -105
-96 -224 -46 -333 15 -33 41 -74 58 -92 l31 -32 -30 -38 c-49 -64 -63 -91 -79
-154 -24 -95 -3 -184 67 -277 l41 -54 -30 -31 c-38 -40 -78 -127 -87 -189 l-7
-47 -116 -56 c-281 -135 -470 -306 -535 -483 -28 -76 -30 -215 -4 -289 127
-365 753 -671 1628 -797 319 -46 516 -59 899 -60 656 -1 1183 71 1669 229
1050 340 1205 984 337 1401 l-114 55 -10 58 c-12 69 -49 146 -86 180 -33 31
-33 41 3 75 16 15 41 55 57 89 51 115 31 237 -57 348 l-32 40 31 32 c17 18 43
58 58 90 49 110 33 231 -46 335 l-41 53 31 35 c41 47 65 98 80 167 67 324
-447 604 -1290 701 -111 13 -127 17 -140 38 -8 12 -29 41 -47 65 l-32 42 55
36 c125 83 256 118 429 114 130 -3 160 5 171 45 10 42 0 78 -29 100 -25 19
-43 21 -160 23 -73 0 -143 -1 -157 -3z m-604 -350 c20 -5 19 -9 -22 -71 -51
-75 -56 -112 -19 -148 24 -25 65 -32 99 -19 9 4 37 37 61 75 25 38 49 69 54
69 16 0 71 -93 88 -149 19 -67 13 -162 -16 -226 -28 -63 -104 -140 -170 -172
-48 -24 -68 -28 -141 -28 -70 0 -95 5 -141 27 -114 53 -188 160 -197 288 -11
154 81 292 228 343 45 16 137 22 176 11z m-574 -361 c3 -49 4 -90 2 -92 -2 -2
-50 -12 -106 -22 -412 -74 -594 -232 -451 -390 58 -64 128 -98 303 -149 99
-29 143 -52 201 -107 50 -47 93 -107 87 -121 -9 -22 -441 48 -648 105 -221 60
-434 159 -514 240 -40 40 -69 101 -69 146 0 189 481 391 1118 470 78 10 72 16
77 -80z m1258 56 c516 -81 904 -252 950 -419 16 -57 -4 -106 -69 -169 -56 -55
-177 -126 -289 -170 l-53 -21 8 37 c4 21 8 79 8 129 -1 82 -4 97 -33 156 -40
82 -135 174 -224 217 -76 36 -236 74 -417 98 -103 13 -131 20 -126 31 3 7 5
43 5 79 l0 64 58 -6 c31 -4 113 -15 182 -26z m-55 -324 c234 -41 349 -89 401
-166 60 -90 52 -215 -23 -367 -42 -87 -45 -97 -40 -152 7 -83 55 -168 134
-238 106 -93 151 -220 131 -364 -12 -88 -43 -145 -108 -196 -183 -145 -206
-192 -219 -453 -6 -128 -11 -162 -27 -190 -43 -73 -128 -101 -357 -121 -239
-20 -284 16 -286 224 -2 107 -62 218 -140 257 -20 11 -63 26 -94 34 -122 32
-129 54 -66 198 66 147 65 248 -4 325 -37 43 -99 75 -217 113 -49 17 -104 40
-121 52 -30 21 -31 25 -26 73 3 28 16 77 30 108 84 190 57 330 -92 478 -89 89
-162 130 -288 164 -93 25 -164 53 -197 79 -19 14 -17 16 34 42 63 32 241 79
363 96 l86 12 63 -65 c111 -113 248 -165 403 -155 140 9 281 81 359 185 l41
54 85 -6 c47 -3 126 -13 175 -21z m-2216 -540 c215 -107 564 -198 911 -237 60
-7 110 -16 110 -21 0 -5 -10 -40 -21 -79 -25 -80 -23 -163 4 -217 9 -19 17
-35 17 -36 0 -4 -220 25 -310 40 -556 96 -937 299 -890 474 11 41 64 121 80
121 6 0 50 -20 99 -45z m3181 3 c62 -85 58 -152 -13 -227 -34 -36 -134 -104
-205 -140 l-43 -22 -22 28 c-12 15 -57 65 -100 110 -102 108 -101 115 19 155
51 16 141 54 200 83 60 29 115 54 121 54 7 1 26 -18 43 -41z m-3168 -521 c290
-142 716 -230 1276 -263 l112 -7 0 -30 c0 -16 -16 -64 -35 -106 -19 -43 -40
-102 -46 -132 -7 -30 -15 -57 -18 -60 -3 -4 -62 -3 -131 2 -435 30 -862 126
-1110 250 -161 81 -262 190 -244 267 13 57 73 140 94 129 3 -2 49 -24 102 -50z
m3138 43 c22 -12 65 -82 74 -122 10 -43 -21 -103 -80 -157 -46 -42 -150 -111
-167 -111 -3 0 -1 17 4 38 11 44 13 194 4 244 -7 35 -7 35 67 76 87 48 75 44
98 32z m-3014 -610 c252 -100 657 -177 1061 -201 159 -9 196 -14 243 -34 30
-13 82 -32 115 -42 76 -23 90 -50 99 -182 l6 -94 -273 6 c-149 3 -333 13 -407
21 -451 53 -798 150 -997 279 -86 55 -131 100 -155 154 -24 55 -12 108 38 163
l36 39 79 -39 c43 -22 113 -54 155 -70z m3084 -9 c26 -96 -59 -190 -263 -293
-90 -45 -258 -108 -287 -108 -10 0 -12 27 -7 118 10 195 25 219 170 266 48 16
136 53 195 82 l107 52 37 -38 c20 -21 42 -56 48 -79z m-3490 -251 l32 -40 -33
-37 c-86 -98 -108 -238 -56 -345 53 -108 155 -197 322 -281 587 -292 1790
-360 2631 -147 403 102 652 246 741 428 52 107 30 247 -56 345 l-33 37 32 39
c36 46 28 47 161 -19 195 -97 337 -215 399 -331 30 -56 35 -73 35 -134 0 -96
-35 -167 -129 -261 -474 -471 -1939 -699 -3218 -499 -599 93 -1072 276 -1294
499 -94 95 -129 165 -129 261 0 61 5 78 35 134 65 121 209 237 419 340 57 28
105 51 107 51 1 0 17 -18 34 -40z m515 -289 c347 -114 765 -171 1257 -171 247
0 249 0 286 -25 65 -43 151 -58 282 -51 279 17 391 50 486 144 34 34 62 51 87
56 78 15 257 80 374 136 l123 59 33 -40 c87 -101 63 -194 -76 -292 -437 -310
-1608 -426 -2487 -246 -442 90 -749 241 -790 389 -13 46 4 99 47 149 l33 39
94 -48 c52 -26 165 -71 251 -99z"/>
</g>
</svg>
