<?xml version="1.0" standalone="no"?>
<!DOCTYPE svg PUBLIC "-//W3C//DTD SVG 20010904//EN"
 "http://www.w3.org/TR/2001/REC-SVG-20010904/DTD/svg10.dtd">
<svg version="1.0" xmlns="http://www.w3.org/2000/svg"
 width="24" height="24" viewBox="0 0 512.000000 512.000000"
 preserveAspectRatio="xMidYMid meet">

<g transform="translate(0.000000,512.000000) scale(0.100000,-0.100000)"
fill="#000000" stroke="none">
<path d="M2137 4675 c-81 -31 -140 -86 -188 -175 l-24 -45 -3 -627 -3 -628
321 0 321 0 -3 628 -3 627 -28 53 c-34 65 -93 123 -155 154 -58 28 -177 35
-235 13z"/>
<path d="M2965 4662 c-75 -36 -147 -113 -172 -185 -17 -48 -18 -97 -18 -637 0
-542 1 -589 18 -638 26 -74 100 -152 178 -187 55 -24 71 -27 138 -23 60 3 88
11 130 33 68 37 125 102 151 172 20 54 21 70 18 662 l-3 606 -23 43 c-34 63
-84 114 -144 147 -43 23 -68 30 -133 33 -72 3 -86 0 -140 -26z"/>
<path d="M1310 4471 c-92 -30 -172 -98 -212 -179 l-23 -47 -3 -522 -3 -523
321 0 321 0 -3 513 -3 512 -26 56 c-57 121 -154 189 -277 195 -37 2 -78 0 -92
-5z"/>
<path d="M3870 4471 c-92 -30 -172 -98 -212 -179 l-23 -47 0 -515 0 -515 23
-43 c60 -112 152 -173 273 -180 67 -4 83 -1 138 23 78 35 152 113 178 187 16
49 18 93 18 538 l0 485 -26 56 c-57 121 -154 189 -277 195 -37 2 -78 0 -92 -5z"/>
<path d="M980 2977 c-159 -35 -284 -156 -325 -312 -11 -45 -15 -115 -15 -291
0 -348 22 -514 99 -745 95 -282 258 -513 457 -645 153 -102 277 -134 516 -134
77 0 148 -5 159 -10 43 -24 61 -98 35 -149 -24 -45 -52 -51 -242 -51 l-174 0
2 -213 3 -212 1173 -3 1172 -2 0 319 0 319 52 11 c161 35 287 183 349 411 23
85 23 87 27 849 l3 764 -25 -16 c-14 -10 -36 -23 -48 -31 -56 -35 -153 -59
-243 -59 -145 -1 -260 45 -371 146 l-64 59 -59 -54 c-71 -66 -126 -99 -211
-128 -69 -23 -200 -32 -254 -17 l-29 8 9 -48 c46 -260 -111 -506 -376 -591
-28 -9 -110 -16 -218 -19 l-173 -6 74 -76 c90 -93 124 -143 182 -263 74 -153
116 -374 85 -448 -23 -54 -92 -75 -150 -45 -39 20 -46 37 -54 125 -20 215 -99
379 -250 516 -83 76 -155 119 -263 157 -77 26 -107 31 -233 36 -153 7 -179 15
-199 58 -14 30 -14 76 0 106 24 53 13 52 599 57 l545 5 54 30 c150 83 213 262
142 410 -33 72 -110 145 -179 172 -44 17 -96 18 -787 20 -548 1 -754 -2 -795
-10z"/>
</g>
</svg>
