<?xml version="1.0" standalone="no"?>
<!DOCTYPE svg PUBLIC "-//W3C//DTD SVG 20010904//EN"
 "http://www.w3.org/TR/2001/REC-SVG-20010904/DTD/svg10.dtd">
<svg version="1.0" xmlns="http://www.w3.org/2000/svg"
 width="512.000000pt" height="512.000000pt" viewBox="0 0 512.000000 512.000000"
 preserveAspectRatio="xMidYMid meet">

<g transform="translate(0.000000,512.000000) scale(0.100000,-0.100000)"
fill="#000" stroke="none">
<path d="M2460 4680 c-140 -18 -245 -54 -364 -124 -85 -50 -213 -169 -271
-250 -193 -273 -220 -627 -69 -926 126 -251 380 -438 657 -485 l37 -6 0 -154
c0 -85 -3 -155 -6 -155 -3 0 -26 18 -52 40 -62 55 -185 115 -278 136 -119 26
-217 16 -398 -41 -163 -51 -187 -63 -204 -101 -23 -49 -14 -78 75 -224 126
-206 212 -285 381 -348 100 -37 247 -42 367 -12 50 12 96 25 103 27 10 4 12
-25 10 -138 l-3 -144 -40 -2 c-654 -40 -1237 -260 -1738 -655 -113 -89 -407
-380 -477 -472 -37 -49 -45 -67 -45 -102 0 -48 22 -79 72 -100 49 -21 4638
-21 4687 0 44 18 66 52 66 101 0 47 -8 60 -111 180 -373 437 -894 770 -1452
931 -217 62 -525 114 -679 114 l-58 0 0 166 c0 153 1 165 18 160 178 -53 321
-63 442 -33 150 39 311 143 393 255 58 79 217 375 217 404 0 41 -16 75 -44 94
-14 9 -106 34 -203 57 -282 64 -427 56 -603 -33 -68 -34 -172 -112 -199 -148
l-20 -27 -1 111 0 112 94 21 c327 76 582 329 672 666 26 98 26 322 0 419 -105
394 -429 665 -826 689 -47 3 -114 1 -150 -3z m264 -240 c239 -61 428 -250 492
-491 22 -85 22 -243 -1 -329 -79 -301 -347 -510 -655 -510 -269 0 -508 156
-619 402 -43 97 -56 161 -55 283 1 89 6 125 27 190 60 182 176 319 346 404
139 71 314 90 465 51z m645 -1771 l91 -21 -27 -46 c-72 -127 -96 -162 -141
-205 -84 -77 -206 -127 -314 -127 -68 0 -248 39 -248 53 0 20 94 181 127 218
44 49 119 96 196 125 82 30 194 31 316 3z m-1245 -150 c105 -39 162 -90 234
-210 l22 -37 -91 -22 c-139 -35 -261 -13 -362 64 -38 29 -137 158 -137 178 0
10 33 23 105 44 62 17 157 11 229 -17z m851 -997 c597 -93 1153 -369 1550
-771 l90 -91 -2060 0 -2060 1 89 86 c472 453 1042 721 1686 792 144 16 555 6
705 -17z"/>
<path d="M2392 4327 c-17 -18 -22 -36 -22 -80 l0 -56 -55 -37 c-263 -174 -263
-564 0 -738 l55 -37 0 -58 c0 -47 4 -61 23 -79 51 -48 124 -17 134 56 5 38 8
42 33 42 25 0 28 -4 33 -42 7 -51 35 -78 81 -78 51 0 76 34 76 103 0 51 3 58
28 74 66 41 111 84 117 113 8 38 -14 76 -53 91 -31 12 -56 3 -111 -42 -104
-83 -256 -76 -359 16 -127 114 -127 306 0 420 106 95 251 99 368 9 24 -19 54
-37 66 -40 49 -12 100 44 89 96 -7 31 -84 102 -125 115 -17 5 -20 15 -20 69 0
52 -4 66 -23 84 -51 48 -124 17 -134 -56 -5 -38 -8 -42 -34 -42 -24 0 -29 4
-29 25 0 33 -25 81 -45 89 -34 13 -72 6 -93 -17z"/>
<path d="M581 3680 c-193 -51 -344 -194 -412 -390 -26 -76 -31 -244 -10 -320
59 -208 226 -372 431 -424 l55 -13 3 -392 c2 -371 1 -392 -15 -387 -10 3 -96
10 -191 16 -191 13 -227 7 -262 -37 -24 -31 -27 -99 -4 -131 27 -39 66 -52
162 -52 164 0 423 -34 601 -80 l73 -19 147 74 146 73 -100 31 c-83 26 -286 79
-372 97 -22 4 -23 9 -23 90 0 70 3 85 14 81 43 -17 146 -29 209 -25 55 4 89
13 141 38 104 49 155 106 227 253 85 174 80 184 -131 238 -116 30 -130 31
-196 22 -86 -12 -167 -48 -223 -98 l-41 -37 0 124 0 124 54 11 c112 24 227 95
310 193 150 176 179 424 74 640 -43 90 -168 214 -260 258 -128 62 -272 77
-407 42z m249 -221 c59 -15 142 -71 182 -124 160 -209 55 -505 -202 -571 -156
-40 -334 45 -407 194 -25 51 -28 68 -28 157 0 119 18 167 91 245 94 101 222
136 364 99z m391 -1209 l39 -11 -29 -57 c-51 -99 -129 -151 -229 -152 -60 0
-142 18 -142 31 0 23 66 123 97 146 76 58 158 71 264 43z"/>
<path d="M4232 3680 c-106 -28 -187 -75 -267 -155 -231 -231 -231 -590 0 -820
77 -78 173 -133 275 -159 l55 -13 3 -123 3 -122 -44 36 c-58 47 -144 86 -222
99 -59 10 -74 8 -202 -23 -148 -37 -183 -56 -183 -105 0 -15 27 -80 60 -145
70 -137 123 -194 227 -243 84 -39 195 -48 289 -23 34 9 65 16 68 16 3 0 6 -39
6 -88 l0 -87 -137 -33 c-76 -18 -183 -48 -238 -66 l-100 -32 140 -72 140 -72
80 19 c193 47 364 71 571 80 l154 7 33 32 c61 61 36 154 -49 182 -31 11 -297
-1 -396 -17 l-38 -6 0 395 0 394 55 11 c99 21 183 70 271 158 87 86 130 159
159 270 33 127 9 308 -57 424 -47 84 -169 199 -252 239 -129 63 -270 77 -404
42z m203 -211 c160 -29 270 -141 298 -303 26 -152 -67 -321 -211 -383 -143
-61 -303 -25 -410 91 -65 72 -92 142 -92 241 0 99 27 169 91 240 56 60 130
102 206 115 26 4 51 8 54 9 3 0 32 -4 64 -10z m-350 -1223 c49 -21 100 -71
135 -132 17 -31 30 -57 28 -59 -2 -1 -24 -7 -50 -14 -141 -34 -255 12 -317
129 -18 34 -31 64 -28 67 3 2 27 11 54 18 53 16 128 11 178 -9z"/>
</g>
</svg>
