<?xml version="1.0" standalone="no"?>
<!DOCTYPE svg PUBLIC "-//W3C//DTD SVG 20010904//EN"
 "http://www.w3.org/TR/2001/REC-SVG-20010904/DTD/svg10.dtd">
<svg version="1.0" xmlns="http://www.w3.org/2000/svg"
 width="840.000000pt" height="657.000000pt" viewBox="0 0 840.000000 657.000000"
 preserveAspectRatio="xMidYMid meet">

<g transform="translate(0.000000,657.000000) scale(0.100000,-0.100000)"
fill="#000" stroke="none">
<path d="M2643 6129 c-71 -28 -155 -106 -190 -177 -25 -50 -28 -68 -28 -152 0
-84 3 -102 28 -152 36 -73 119 -150 192 -177 74 -28 176 -28 250 0 78 29 157
104 196 186 l31 66 97 -5 c121 -6 184 -32 244 -98 76 -84 77 -94 77 -567 l0
-415 85 79 84 78 1 331 c0 185 -5 355 -10 385 -23 118 -101 235 -200 299 -78
50 -156 70 -275 70 l-103 0 -30 63 c-39 84 -79 127 -154 167 -56 30 -73 34
-153 37 -73 3 -100 -1 -142 -18z m217 -168 c19 -10 48 -37 65 -60 24 -34 29
-52 29 -95 0 -171 -201 -253 -315 -129 -39 42 -49 66 -49 123 0 143 140 226
270 161z"/>
<path d="M5547 6140 c-100 -26 -196 -108 -238 -204 l-24 -56 -87 0 c-48 0
-111 -5 -140 -11 -174 -36 -320 -182 -357 -357 -7 -33 -11 -180 -11 -388 l0
-335 33 -27 c17 -15 56 -49 85 -76 l52 -49 0 415 c0 474 1 484 77 568 59 66
121 91 243 97 l97 6 30 -65 c40 -85 79 -128 155 -168 54 -29 75 -35 148 -38
69 -3 95 0 142 18 75 28 159 104 194 176 31 64 43 174 25 239 -28 103 -122
206 -221 240 -57 20 -154 27 -203 15z m126 -161 c46 -12 110 -68 127 -109 19
-45 8 -132 -21 -174 -70 -103 -226 -105 -299 -4 -87 120 -8 282 145 297 6 0
27 -4 48 -10z"/>
<path d="M4068 5737 c-139 -59 -218 -178 -218 -327 0 -100 29 -171 99 -240 31
-31 81 -68 114 -83 l57 -27 0 -55 0 -55 80 0 80 0 0 59 c0 58 1 60 30 66 40 9
141 76 166 111 58 81 69 114 69 219 0 89 -3 106 -28 157 -34 69 -94 131 -162
166 -40 21 -67 26 -140 29 -77 3 -98 0 -147 -20z m212 -162 c14 -7 37 -26 51
-42 94 -102 42 -264 -96 -302 -105 -28 -216 67 -215 185 1 44 34 108 71 137
61 46 127 53 189 22z"/>
<path d="M2333 4810 c-112 -45 -205 -168 -219 -290 -8 -75 17 -171 62 -237 37
-53 115 -114 172 -134 l32 -11 0 -83 c0 -112 14 -177 55 -261 63 -128 189
-220 335 -243 36 -6 134 -11 218 -11 l152 0 0 63 c0 34 3 72 6 84 6 21 5 21
-188 25 -186 3 -195 4 -244 30 -67 35 -130 107 -149 171 -8 28 -15 90 -15 138
l0 87 38 13 c87 28 157 94 201 189 22 46 26 69 26 140 0 71 -4 94 -27 142 -35
76 -98 142 -166 175 -77 37 -211 43 -289 13z m222 -174 c116 -62 116 -244 0
-311 -146 -86 -321 61 -261 220 19 50 73 102 114 111 15 3 32 7 37 9 20 5 71
-8 110 -29z"/>
<path d="M4091 4819 c-75 -13 -183 -52 -249 -91 -32 -18 -98 -73 -147 -123
-73 -72 -99 -107 -133 -175 -65 -131 -74 -178 -79 -397 l-5 -193 -34 0 c-51 0
-110 -35 -141 -82 l-28 -42 -3 -570 c-2 -503 -1 -576 13 -613 20 -51 71 -98
122 -113 27 -8 273 -10 814 -8 l775 3 42 28 c23 15 51 45 62 67 19 38 20 57
20 620 0 561 -1 582 -20 620 -24 46 -80 88 -131 96 l-36 6 -6 182 c-6 210 -17
260 -84 396 -39 80 -60 109 -132 180 -95 94 -165 139 -268 175 -121 42 -235
53 -352 34z m289 -355 c82 -39 150 -106 192 -192 l33 -66 3 -183 4 -183 -406
0 -406 0 0 158 c0 177 11 235 62 314 49 78 136 146 221 174 27 9 77 13 137 11
82 -2 104 -7 160 -33z m-76 -1094 c49 -34 80 -93 79 -151 -1 -52 -13 -81 -53
-124 -28 -30 -28 -32 -32 -177 -3 -137 -5 -149 -26 -170 -31 -32 -92 -31 -126
1 -26 24 -26 27 -26 168 l0 143 -30 26 c-35 32 -70 100 -70 137 0 62 49 137
105 163 46 22 136 13 179 -16z"/>
<path d="M5840 4821 c-88 -27 -173 -99 -216 -183 -39 -75 -45 -199 -14 -280
30 -80 97 -151 183 -194 l70 -36 -6 -98 c-8 -152 -55 -233 -165 -287 -55 -27
-63 -28 -245 -31 l-188 -4 3 -81 3 -82 150 -3 c83 -1 180 2 217 8 175 27 311
141 367 308 16 47 21 86 21 172 0 81 3 110 13 110 29 0 115 50 155 91 24 23
56 66 70 94 24 44 27 61 27 150 0 91 -3 105 -30 158 -37 75 -118 149 -190 176
-57 22 -173 27 -225 12z m167 -162 c101 -38 145 -163 92 -260 -84 -151 -302
-119 -340 50 -18 79 31 175 106 207 37 16 104 18 142 3z"/>
<path d="M2394 3490 c-106 -22 -199 -93 -251 -192 -25 -48 -28 -63 -28 -153 0
-85 4 -107 24 -148 35 -70 101 -139 168 -172 52 -27 68 -30 153 -30 89 0 99 2
158 34 76 41 132 103 163 177 l23 54 168 0 168 0 0 85 0 85 -169 0 -168 0 -17
44 c-59 154 -233 249 -392 216z m142 -186 c76 -36 124 -133 103 -209 -23 -82
-124 -145 -208 -130 -100 18 -174 123 -149 212 30 113 154 174 254 127z"/>
<path d="M5874 3490 c-104 -22 -223 -120 -259 -215 l-18 -45 -168 0 -169 0 0
-85 0 -85 168 0 167 0 18 -49 c24 -67 104 -153 175 -188 50 -25 68 -28 152
-28 84 0 102 3 152 28 74 36 150 119 178 195 30 78 25 204 -10 277 -35 72
-114 148 -180 172 -67 25 -151 35 -206 23z m133 -181 c15 -5 41 -22 56 -37 56
-53 74 -116 52 -189 -31 -104 -144 -159 -243 -118 -75 32 -115 90 -115 170 0
75 47 148 113 174 34 13 102 13 137 0z"/>
<path d="M2698 2711 c-118 -38 -216 -124 -269 -236 -35 -75 -49 -144 -49 -250
l0 -81 -57 -24 c-73 -30 -146 -102 -181 -178 -22 -48 -27 -71 -26 -142 0 -72
4 -95 28 -146 81 -179 285 -258 458 -177 78 37 137 92 175 165 25 48 28 63 28
153 0 86 -3 107 -25 150 -35 71 -113 146 -184 175 l-59 25 6 103 c6 124 34
192 101 247 77 63 101 68 309 73 l187 4 0 79 0 79 -192 -1 c-159 0 -203 -3
-250 -18z m-134 -769 c51 -35 80 -92 79 -152 -1 -68 -42 -133 -105 -166 -35
-18 -121 -18 -157 0 -42 22 -89 80 -101 125 -23 85 39 195 122 220 51 16 118
4 162 -27z"/>
<path d="M5260 2645 l0 -85 173 0 c205 0 252 -10 320 -70 70 -62 98 -128 104
-247 l6 -99 -76 -37 c-129 -64 -187 -153 -195 -297 -3 -70 0 -95 18 -142 28
-76 104 -159 178 -195 50 -25 68 -28 152 -28 84 0 102 3 152 28 73 36 150 119
177 192 14 37 21 79 21 125 0 138 -78 259 -206 320 l-64 31 0 104 c0 209 -86
356 -255 436 -85 40 -144 49 -336 49 l-169 0 0 -85z m784 -703 c147 -102 75
-332 -104 -332 -120 0 -208 111 -178 227 31 124 177 179 282 105z"/>
<path d="M3540 1687 c0 -667 1 -659 -70 -740 -62 -70 -128 -98 -247 -104 l-99
-6 -37 76 c-64 129 -153 187 -297 195 -70 3 -95 0 -142 -18 -76 -28 -159 -104
-195 -178 -25 -50 -28 -68 -28 -152 0 -84 3 -102 28 -152 36 -73 119 -150 192
-177 74 -28 176 -28 250 0 77 29 157 104 195 185 l31 64 104 0 c119 0 196 20
275 70 99 64 177 181 200 299 6 33 10 284 10 642 l0 589 -85 0 -85 0 0 -593z
m-666 -768 c37 -25 86 -106 86 -143 0 -102 -91 -196 -190 -196 -51 0 -113 32
-146 76 -26 33 -29 46 -29 109 0 63 3 76 28 108 15 21 45 46 65 57 51 28 137
23 186 -11z"/>
<path d="M4120 1890 l0 -390 -64 -29 c-75 -34 -135 -90 -173 -163 -25 -48 -28
-63 -28 -153 0 -87 3 -107 26 -155 33 -70 99 -136 169 -169 79 -37 192 -41
275 -11 82 31 174 122 204 203 64 175 -15 368 -183 443 l-65 29 -1 393 0 392
-80 0 -80 0 0 -390z m160 -575 c35 -18 67 -54 85 -97 42 -103 -17 -216 -130
-247 -76 -21 -160 24 -196 104 -70 153 93 316 241 240z"/>
<path d="M4690 1690 c0 -395 4 -606 11 -642 33 -154 148 -287 297 -340 39 -14
93 -22 173 -25 l115 -6 17 -47 c24 -68 96 -143 170 -180 81 -39 154 -47 237
-26 222 56 333 294 232 498 -94 192 -330 255 -508 136 -57 -38 -116 -113 -135
-170 l-13 -40 -110 4 c-100 3 -116 6 -164 33 -59 32 -91 65 -125 129 -22 41
-22 44 -25 654 l-3 612 -84 0 -85 0 0 -590z m1033 -773 c76 -42 112 -160 73
-236 -20 -38 -80 -89 -114 -97 -15 -3 -32 -7 -38 -9 -6 -2 -32 1 -58 7 -90 19
-158 117 -141 201 29 138 159 201 278 134z"/>
</g>
</svg>
